<?xml version="1.0" encoding="UTF-8" standalone="no"?>
<!DOCTYPE svg PUBLIC "-//W3C//DTD SVG 1.1//EN"
 "http://www.w3.org/Graphics/SVG/1.1/DTD/svg11.dtd">
<!-- Generated by graphviz version 2.43.0 (0)
 -->
<!-- Title: %3 Pages: 1 -->
<svg width="273pt" height="859pt"
 viewBox="0.00 0.00 272.54 859.00" xmlns="http://www.w3.org/2000/svg" xmlns:xlink="http://www.w3.org/1999/xlink">
<g id="graph0" class="graph" transform="scale(1 1) rotate(0) translate(4 855)">
<title>%3</title>
<polygon fill="white" stroke="transparent" points="-4,4 -4,-855 268.54,-855 268.54,4 -4,4"/>
<text text-anchor="middle" x="132.27" y="-835.8" font-family="Times,serif" font-size="14.00">GCN</text>
<!-- inp_ x.1 -->
<g id="node1" class="node">
<title>inp_ x.1</title>
<ellipse fill="none" stroke="black" cx="54.5" cy="-810" rx="40.09" ry="18"/>
<text text-anchor="middle" x="54.5" y="-806.3" font-family="Times,serif" font-size="14.00">inp_ x.1</text>
</g>
<!-- . 705 -->
<g id="node3" class="node">
<title>. 705</title>
<polygon fill="none" stroke="black" points="136,-756 7,-756 7,-720 136,-720 136,-756"/>
<text text-anchor="middle" x="71.5" y="-734.3" font-family="Times,serif" font-size="14.00">convs.0 (GCNConv)</text>
</g>
<!-- inp_ x.1&#45;&gt;. 705 -->
<g id="edge1" class="edge">
<title>inp_ x.1&#45;&gt;. 705</title>
<path fill="none" stroke="black" d="M58.62,-792.05C60.51,-784.26 62.8,-774.82 64.92,-766.08"/>
<polygon fill="black" stroke="black" points="68.35,-766.82 67.3,-756.28 61.54,-765.17 68.35,-766.82"/>
</g>
<!-- inp_ edge_index.1 -->
<g id="node2" class="node">
<title>inp_ edge_index.1</title>
<ellipse fill="none" stroke="black" cx="188.5" cy="-810" rx="76.09" ry="18"/>
<text text-anchor="middle" x="188.5" y="-806.3" font-family="Times,serif" font-size="14.00">inp_ edge_index.1</text>
</g>
<!-- inp_ edge_index.1&#45;&gt;. 705 -->
<g id="edge2" class="edge">
<title>inp_ edge_index.1&#45;&gt;. 705</title>
<path fill="none" stroke="black" d="M161.95,-793.12C146.22,-783.7 126.04,-771.63 108.74,-761.28"/>
<polygon fill="black" stroke="black" points="110.37,-758.17 99.99,-756.04 106.77,-764.18 110.37,-758.17"/>
</g>
<!-- . 707 -->
<g id="node5" class="node">
<title>. 707</title>
<polygon fill="none" stroke="black" points="174,-612 45,-612 45,-576 174,-576 174,-612"/>
<text text-anchor="middle" x="109.5" y="-590.3" font-family="Times,serif" font-size="14.00">convs.1 (GCNConv)</text>
</g>
<!-- inp_ edge_index.1&#45;&gt;. 707 -->
<g id="edge5" class="edge">
<title>inp_ edge_index.1&#45;&gt;. 707</title>
<path fill="none" stroke="black" d="M187.05,-791.73C183.96,-761.33 174.98,-696.86 151.5,-648 146.77,-638.16 139.93,-628.47 133.15,-620.13"/>
<polygon fill="black" stroke="black" points="135.6,-617.62 126.45,-612.28 130.28,-622.16 135.6,-617.62"/>
</g>
<!-- . 709 -->
<g id="node7" class="node">
<title>. 709</title>
<polygon fill="none" stroke="black" points="224,-468 95,-468 95,-432 224,-432 224,-468"/>
<text text-anchor="middle" x="159.5" y="-446.3" font-family="Times,serif" font-size="14.00">convs.2 (GCNConv)</text>
</g>
<!-- inp_ edge_index.1&#45;&gt;. 709 -->
<g id="edge8" class="edge">
<title>inp_ edge_index.1&#45;&gt;. 709</title>
<path fill="none" stroke="black" d="M192.75,-791.63C198.89,-764.99 209.5,-712.36 209.5,-667 209.5,-667 209.5,-667 209.5,-593 209.5,-552.46 204.09,-541.83 189.5,-504 185.92,-494.73 180.93,-485.12 176.04,-476.67"/>
<polygon fill="black" stroke="black" points="179,-474.8 170.85,-468.03 173,-478.4 179,-474.8"/>
</g>
<!-- . 706 -->
<g id="node4" class="node">
<title>. 706</title>
<polygon fill="none" stroke="black" points="143,-684 0,-684 0,-648 143,-648 143,-684"/>
<text text-anchor="middle" x="71.5" y="-662.3" font-family="Times,serif" font-size="14.00">leakys.0 (LeakyReLU)</text>
</g>
<!-- . 705&#45;&gt;. 706 -->
<g id="edge3" class="edge">
<title>. 705&#45;&gt;. 706</title>
<path fill="none" stroke="black" d="M71.5,-719.7C71.5,-711.98 71.5,-702.71 71.5,-694.11"/>
<polygon fill="black" stroke="black" points="75,-694.1 71.5,-684.1 68,-694.1 75,-694.1"/>
</g>
<!-- . 706&#45;&gt;. 707 -->
<g id="edge4" class="edge">
<title>. 706&#45;&gt;. 707</title>
<path fill="none" stroke="black" d="M80.89,-647.7C85.26,-639.64 90.56,-629.89 95.4,-620.98"/>
<polygon fill="black" stroke="black" points="98.52,-622.56 100.21,-612.1 92.37,-619.22 98.52,-622.56"/>
</g>
<!-- . 708 -->
<g id="node6" class="node">
<title>. 708</title>
<polygon fill="none" stroke="black" points="181,-540 38,-540 38,-504 181,-504 181,-540"/>
<text text-anchor="middle" x="109.5" y="-518.3" font-family="Times,serif" font-size="14.00">leakys.1 (LeakyReLU)</text>
</g>
<!-- . 707&#45;&gt;. 708 -->
<g id="edge6" class="edge">
<title>. 707&#45;&gt;. 708</title>
<path fill="none" stroke="black" d="M109.5,-575.7C109.5,-567.98 109.5,-558.71 109.5,-550.11"/>
<polygon fill="black" stroke="black" points="113,-550.1 109.5,-540.1 106,-550.1 113,-550.1"/>
</g>
<!-- . 708&#45;&gt;. 709 -->
<g id="edge7" class="edge">
<title>. 708&#45;&gt;. 709</title>
<path fill="none" stroke="black" d="M121.86,-503.7C127.73,-495.47 134.87,-485.48 141.34,-476.42"/>
<polygon fill="black" stroke="black" points="144.32,-478.28 147.28,-468.1 138.62,-474.21 144.32,-478.28"/>
</g>
<!-- . 710 -->
<g id="node8" class="node">
<title>. 710</title>
<polygon fill="none" stroke="black" points="231,-396 88,-396 88,-360 231,-360 231,-396"/>
<text text-anchor="middle" x="159.5" y="-374.3" font-family="Times,serif" font-size="14.00">leakys.2 (LeakyReLU)</text>
</g>
<!-- . 709&#45;&gt;. 710 -->
<g id="edge9" class="edge">
<title>. 709&#45;&gt;. 710</title>
<path fill="none" stroke="black" d="M159.5,-431.7C159.5,-423.98 159.5,-414.71 159.5,-406.11"/>
<polygon fill="black" stroke="black" points="163,-406.1 159.5,-396.1 156,-406.1 163,-406.1"/>
</g>
<!-- . 711 -->
<g id="node9" class="node">
<title>. 711</title>
<polygon fill="none" stroke="black" points="254.5,-252 64.5,-252 64.5,-216 254.5,-216 254.5,-252"/>
<text text-anchor="middle" x="159.5" y="-230.3" font-family="Times,serif" font-size="14.00">mean_pool (MeanAggregation)</text>
</g>
<!-- . 710&#45;&gt;. 711 -->
<g id="edge12" class="edge">
<title>. 710&#45;&gt;. 711</title>
<path fill="none" stroke="black" d="M154.09,-359.53C151.2,-349.29 147.95,-336.04 146.5,-324 144.58,-308.12 144.58,-303.88 146.5,-288 147.52,-279.53 149.43,-270.47 151.48,-262.28"/>
<polygon fill="black" stroke="black" points="154.9,-263.03 154.09,-252.47 148.14,-261.23 154.9,-263.03"/>
</g>
<!-- index.19 -->
<g id="node10" class="node">
<title>index.19</title>
<path fill="none" stroke="black" d="M217.5,-324C217.5,-324 167.5,-324 167.5,-324 161.5,-324 155.5,-318 155.5,-312 155.5,-312 155.5,-300 155.5,-300 155.5,-294 161.5,-288 167.5,-288 167.5,-288 217.5,-288 217.5,-288 223.5,-288 229.5,-294 229.5,-300 229.5,-300 229.5,-312 229.5,-312 229.5,-318 223.5,-324 217.5,-324"/>
<text text-anchor="middle" x="192.5" y="-302.3" font-family="Times,serif" font-size="14.00">new_zeros</text>
</g>
<!-- . 710&#45;&gt;index.19 -->
<g id="edge10" class="edge">
<title>. 710&#45;&gt;index.19</title>
<path fill="none" stroke="black" d="M167.66,-359.7C171.41,-351.73 175.95,-342.1 180.12,-333.26"/>
<polygon fill="black" stroke="black" points="183.34,-334.64 184.44,-324.1 177.01,-331.66 183.34,-334.64"/>
</g>
<!-- . 712 -->
<g id="node11" class="node">
<title>. 712</title>
<polygon fill="none" stroke="black" points="209,-180 110,-180 110,-144 209,-144 209,-180"/>
<text text-anchor="middle" x="159.5" y="-158.3" font-family="Times,serif" font-size="14.00">drop (Dropout)</text>
</g>
<!-- . 711&#45;&gt;. 712 -->
<g id="edge13" class="edge">
<title>. 711&#45;&gt;. 712</title>
<path fill="none" stroke="black" d="M159.5,-215.7C159.5,-207.98 159.5,-198.71 159.5,-190.11"/>
<polygon fill="black" stroke="black" points="163,-190.1 159.5,-180.1 156,-190.1 163,-190.1"/>
</g>
<!-- index.19&#45;&gt;. 711 -->
<g id="edge11" class="edge">
<title>index.19&#45;&gt;. 711</title>
<path fill="none" stroke="black" d="M184.34,-287.7C180.59,-279.73 176.05,-270.1 171.88,-261.26"/>
<polygon fill="black" stroke="black" points="174.99,-259.66 167.56,-252.1 168.66,-262.64 174.99,-259.66"/>
</g>
<!-- . 713 -->
<g id="node12" class="node">
<title>. 713</title>
<polygon fill="none" stroke="black" points="199,-108 120,-108 120,-72 199,-72 199,-108"/>
<text text-anchor="middle" x="159.5" y="-86.3" font-family="Times,serif" font-size="14.00">lin (Linear)</text>
</g>
<!-- . 712&#45;&gt;. 713 -->
<g id="edge14" class="edge">
<title>. 712&#45;&gt;. 713</title>
<path fill="none" stroke="black" d="M159.5,-143.7C159.5,-135.98 159.5,-126.71 159.5,-118.11"/>
<polygon fill="black" stroke="black" points="163,-118.1 159.5,-108.1 156,-118.1 163,-118.1"/>
</g>
<!-- out_0 -->
<g id="node13" class="node">
<title>out_0</title>
<ellipse fill="none" stroke="black" cx="159.5" cy="-18" rx="30.59" ry="18"/>
<text text-anchor="middle" x="159.5" y="-14.3" font-family="Times,serif" font-size="14.00">out_0</text>
</g>
<!-- . 713&#45;&gt;out_0 -->
<g id="edge15" class="edge">
<title>. 713&#45;&gt;out_0</title>
<path fill="none" stroke="black" d="M159.5,-71.7C159.5,-63.98 159.5,-54.71 159.5,-46.11"/>
<polygon fill="black" stroke="black" points="163,-46.1 159.5,-36.1 156,-46.1 163,-46.1"/>
</g>
</g>
</svg>
