<?xml version="1.0" encoding="UTF-8" standalone="no"?>
<!DOCTYPE svg PUBLIC "-//W3C//DTD SVG 1.1//EN"
 "http://www.w3.org/Graphics/SVG/1.1/DTD/svg11.dtd">
<!-- Generated by graphviz version 2.43.0 (0)
 -->
<!-- Title: %3 Pages: 1 -->
<svg width="273pt" height="1435pt"
 viewBox="0.00 0.00 272.54 1435.00" xmlns="http://www.w3.org/2000/svg" xmlns:xlink="http://www.w3.org/1999/xlink">
<g id="graph0" class="graph" transform="scale(1 1) rotate(0) translate(4 1431)">
<title>%3</title>
<polygon fill="white" stroke="transparent" points="-4,4 -4,-1431 268.54,-1431 268.54,4 -4,4"/>
<text text-anchor="middle" x="132.27" y="-1411.8" font-family="Times,serif" font-size="14.00">GCN</text>
<!-- inp_ x.1 -->
<g id="node1" class="node">
<title>inp_ x.1</title>
<ellipse fill="none" stroke="black" cx="54.5" cy="-1386" rx="40.09" ry="18"/>
<text text-anchor="middle" x="54.5" y="-1382.3" font-family="Times,serif" font-size="14.00">inp_ x.1</text>
</g>
<!-- . 790 -->
<g id="node3" class="node">
<title>. 790</title>
<polygon fill="none" stroke="black" points="136,-1332 7,-1332 7,-1296 136,-1296 136,-1332"/>
<text text-anchor="middle" x="71.5" y="-1310.3" font-family="Times,serif" font-size="14.00">convs.0 (GCNConv)</text>
</g>
<!-- inp_ x.1&#45;&gt;. 790 -->
<g id="edge1" class="edge">
<title>inp_ x.1&#45;&gt;. 790</title>
<path fill="none" stroke="black" d="M58.62,-1368.05C60.51,-1360.26 62.8,-1350.82 64.92,-1342.08"/>
<polygon fill="black" stroke="black" points="68.35,-1342.82 67.3,-1332.28 61.54,-1341.17 68.35,-1342.82"/>
</g>
<!-- inp_ edge_index.1 -->
<g id="node2" class="node">
<title>inp_ edge_index.1</title>
<ellipse fill="none" stroke="black" cx="188.5" cy="-1386" rx="76.09" ry="18"/>
<text text-anchor="middle" x="188.5" y="-1382.3" font-family="Times,serif" font-size="14.00">inp_ edge_index.1</text>
</g>
<!-- inp_ edge_index.1&#45;&gt;. 790 -->
<g id="edge2" class="edge">
<title>inp_ edge_index.1&#45;&gt;. 790</title>
<path fill="none" stroke="black" d="M161.95,-1369.12C146.22,-1359.7 126.04,-1347.63 108.74,-1337.28"/>
<polygon fill="black" stroke="black" points="110.37,-1334.17 99.99,-1332.04 106.77,-1340.18 110.37,-1334.17"/>
</g>
<!-- . 792 -->
<g id="node5" class="node">
<title>. 792</title>
<polygon fill="none" stroke="black" points="174,-1188 45,-1188 45,-1152 174,-1152 174,-1188"/>
<text text-anchor="middle" x="109.5" y="-1166.3" font-family="Times,serif" font-size="14.00">convs.1 (GCNConv)</text>
</g>
<!-- inp_ edge_index.1&#45;&gt;. 792 -->
<g id="edge5" class="edge">
<title>inp_ edge_index.1&#45;&gt;. 792</title>
<path fill="none" stroke="black" d="M187.05,-1367.73C183.96,-1337.33 174.98,-1272.86 151.5,-1224 146.77,-1214.16 139.93,-1204.47 133.15,-1196.13"/>
<polygon fill="black" stroke="black" points="135.6,-1193.62 126.45,-1188.28 130.28,-1198.16 135.6,-1193.62"/>
</g>
<!-- . 794 -->
<g id="node7" class="node">
<title>. 794</title>
<polygon fill="none" stroke="black" points="224,-1044 95,-1044 95,-1008 224,-1008 224,-1044"/>
<text text-anchor="middle" x="159.5" y="-1022.3" font-family="Times,serif" font-size="14.00">convs.2 (GCNConv)</text>
</g>
<!-- inp_ edge_index.1&#45;&gt;. 794 -->
<g id="edge8" class="edge">
<title>inp_ edge_index.1&#45;&gt;. 794</title>
<path fill="none" stroke="black" d="M192.75,-1367.63C198.89,-1340.99 209.5,-1288.36 209.5,-1243 209.5,-1243 209.5,-1243 209.5,-1169 209.5,-1128.46 204.09,-1117.83 189.5,-1080 185.92,-1070.73 180.93,-1061.12 176.04,-1052.67"/>
<polygon fill="black" stroke="black" points="179,-1050.8 170.85,-1044.03 173,-1054.4 179,-1050.8"/>
</g>
<!-- . 791 -->
<g id="node4" class="node">
<title>. 791</title>
<polygon fill="none" stroke="black" points="143,-1260 0,-1260 0,-1224 143,-1224 143,-1260"/>
<text text-anchor="middle" x="71.5" y="-1238.3" font-family="Times,serif" font-size="14.00">leakys.0 (LeakyReLU)</text>
</g>
<!-- . 790&#45;&gt;. 791 -->
<g id="edge3" class="edge">
<title>. 790&#45;&gt;. 791</title>
<path fill="none" stroke="black" d="M71.5,-1295.7C71.5,-1287.98 71.5,-1278.71 71.5,-1270.11"/>
<polygon fill="black" stroke="black" points="75,-1270.1 71.5,-1260.1 68,-1270.1 75,-1270.1"/>
</g>
<!-- . 791&#45;&gt;. 792 -->
<g id="edge4" class="edge">
<title>. 791&#45;&gt;. 792</title>
<path fill="none" stroke="black" d="M80.89,-1223.7C85.26,-1215.64 90.56,-1205.89 95.4,-1196.98"/>
<polygon fill="black" stroke="black" points="98.52,-1198.56 100.21,-1188.1 92.37,-1195.22 98.52,-1198.56"/>
</g>
<!-- . 793 -->
<g id="node6" class="node">
<title>. 793</title>
<polygon fill="none" stroke="black" points="181,-1116 38,-1116 38,-1080 181,-1080 181,-1116"/>
<text text-anchor="middle" x="109.5" y="-1094.3" font-family="Times,serif" font-size="14.00">leakys.1 (LeakyReLU)</text>
</g>
<!-- . 792&#45;&gt;. 793 -->
<g id="edge6" class="edge">
<title>. 792&#45;&gt;. 793</title>
<path fill="none" stroke="black" d="M109.5,-1151.7C109.5,-1143.98 109.5,-1134.71 109.5,-1126.11"/>
<polygon fill="black" stroke="black" points="113,-1126.1 109.5,-1116.1 106,-1126.1 113,-1126.1"/>
</g>
<!-- . 793&#45;&gt;. 794 -->
<g id="edge7" class="edge">
<title>. 793&#45;&gt;. 794</title>
<path fill="none" stroke="black" d="M121.86,-1079.7C127.73,-1071.47 134.87,-1061.48 141.34,-1052.42"/>
<polygon fill="black" stroke="black" points="144.32,-1054.28 147.28,-1044.1 138.62,-1050.21 144.32,-1054.28"/>
</g>
<!-- . 795 -->
<g id="node8" class="node">
<title>. 795</title>
<polygon fill="none" stroke="black" points="231,-972 88,-972 88,-936 231,-936 231,-972"/>
<text text-anchor="middle" x="159.5" y="-950.3" font-family="Times,serif" font-size="14.00">leakys.2 (LeakyReLU)</text>
</g>
<!-- . 794&#45;&gt;. 795 -->
<g id="edge9" class="edge">
<title>. 794&#45;&gt;. 795</title>
<path fill="none" stroke="black" d="M159.5,-1007.7C159.5,-999.98 159.5,-990.71 159.5,-982.11"/>
<polygon fill="black" stroke="black" points="163,-982.1 159.5,-972.1 156,-982.1 163,-982.1"/>
</g>
<!-- . 796 -->
<g id="node9" class="node">
<title>. 796</title>
<polygon fill="none" stroke="black" points="254.5,-828 64.5,-828 64.5,-792 254.5,-792 254.5,-828"/>
<text text-anchor="middle" x="159.5" y="-806.3" font-family="Times,serif" font-size="14.00">mean_pool (MeanAggregation)</text>
</g>
<!-- . 795&#45;&gt;. 796 -->
<g id="edge12" class="edge">
<title>. 795&#45;&gt;. 796</title>
<path fill="none" stroke="black" d="M154.09,-935.53C151.2,-925.29 147.95,-912.04 146.5,-900 144.58,-884.12 144.58,-879.88 146.5,-864 147.52,-855.53 149.43,-846.47 151.48,-838.28"/>
<polygon fill="black" stroke="black" points="154.9,-839.03 154.09,-828.47 148.14,-837.23 154.9,-839.03"/>
</g>
<!-- index.19 -->
<g id="node10" class="node">
<title>index.19</title>
<path fill="none" stroke="black" d="M217.5,-900C217.5,-900 167.5,-900 167.5,-900 161.5,-900 155.5,-894 155.5,-888 155.5,-888 155.5,-876 155.5,-876 155.5,-870 161.5,-864 167.5,-864 167.5,-864 217.5,-864 217.5,-864 223.5,-864 229.5,-870 229.5,-876 229.5,-876 229.5,-888 229.5,-888 229.5,-894 223.5,-900 217.5,-900"/>
<text text-anchor="middle" x="192.5" y="-878.3" font-family="Times,serif" font-size="14.00">new_zeros</text>
</g>
<!-- . 795&#45;&gt;index.19 -->
<g id="edge10" class="edge">
<title>. 795&#45;&gt;index.19</title>
<path fill="none" stroke="black" d="M167.66,-935.7C171.41,-927.73 175.95,-918.1 180.12,-909.26"/>
<polygon fill="black" stroke="black" points="183.34,-910.64 184.44,-900.1 177.01,-907.66 183.34,-910.64"/>
</g>
<!-- . 797 -->
<g id="node11" class="node">
<title>. 797</title>
<polygon fill="none" stroke="black" points="215,-756 104,-756 104,-720 215,-720 215,-756"/>
<text text-anchor="middle" x="159.5" y="-734.3" font-family="Times,serif" font-size="14.00">linears.0 (Linear)</text>
</g>
<!-- . 796&#45;&gt;. 797 -->
<g id="edge13" class="edge">
<title>. 796&#45;&gt;. 797</title>
<path fill="none" stroke="black" d="M159.5,-791.7C159.5,-783.98 159.5,-774.71 159.5,-766.11"/>
<polygon fill="black" stroke="black" points="163,-766.1 159.5,-756.1 156,-766.1 163,-766.1"/>
</g>
<!-- index.19&#45;&gt;. 796 -->
<g id="edge11" class="edge">
<title>index.19&#45;&gt;. 796</title>
<path fill="none" stroke="black" d="M184.34,-863.7C180.59,-855.73 176.05,-846.1 171.88,-837.26"/>
<polygon fill="black" stroke="black" points="174.99,-835.66 167.56,-828.1 168.66,-838.64 174.99,-835.66"/>
</g>
<!-- . 798 -->
<g id="node12" class="node">
<title>. 798</title>
<polygon fill="none" stroke="black" points="231.5,-684 87.5,-684 87.5,-648 231.5,-648 231.5,-684"/>
<text text-anchor="middle" x="159.5" y="-662.3" font-family="Times,serif" font-size="14.00">last_relu (LeakyReLU)</text>
</g>
<!-- . 797&#45;&gt;. 798 -->
<g id="edge14" class="edge">
<title>. 797&#45;&gt;. 798</title>
<path fill="none" stroke="black" d="M159.5,-719.7C159.5,-711.98 159.5,-702.71 159.5,-694.11"/>
<polygon fill="black" stroke="black" points="163,-694.1 159.5,-684.1 156,-694.1 163,-694.1"/>
</g>
<!-- . 799 -->
<g id="node13" class="node">
<title>. 799</title>
<polygon fill="none" stroke="black" points="215,-612 104,-612 104,-576 215,-576 215,-612"/>
<text text-anchor="middle" x="159.5" y="-590.3" font-family="Times,serif" font-size="14.00">linears.1 (Linear)</text>
</g>
<!-- . 798&#45;&gt;. 799 -->
<g id="edge15" class="edge">
<title>. 798&#45;&gt;. 799</title>
<path fill="none" stroke="black" d="M159.5,-647.7C159.5,-639.98 159.5,-630.71 159.5,-622.11"/>
<polygon fill="black" stroke="black" points="163,-622.1 159.5,-612.1 156,-622.1 163,-622.1"/>
</g>
<!-- . 800 -->
<g id="node14" class="node">
<title>. 800</title>
<polygon fill="none" stroke="black" points="231.5,-540 87.5,-540 87.5,-504 231.5,-504 231.5,-540"/>
<text text-anchor="middle" x="159.5" y="-518.3" font-family="Times,serif" font-size="14.00">last_relu (LeakyReLU)</text>
</g>
<!-- . 799&#45;&gt;. 800 -->
<g id="edge16" class="edge">
<title>. 799&#45;&gt;. 800</title>
<path fill="none" stroke="black" d="M159.5,-575.7C159.5,-567.98 159.5,-558.71 159.5,-550.11"/>
<polygon fill="black" stroke="black" points="163,-550.1 159.5,-540.1 156,-550.1 163,-550.1"/>
</g>
<!-- . 801 -->
<g id="node15" class="node">
<title>. 801</title>
<polygon fill="none" stroke="black" points="215,-468 104,-468 104,-432 215,-432 215,-468"/>
<text text-anchor="middle" x="159.5" y="-446.3" font-family="Times,serif" font-size="14.00">linears.2 (Linear)</text>
</g>
<!-- . 800&#45;&gt;. 801 -->
<g id="edge17" class="edge">
<title>. 800&#45;&gt;. 801</title>
<path fill="none" stroke="black" d="M159.5,-503.7C159.5,-495.98 159.5,-486.71 159.5,-478.11"/>
<polygon fill="black" stroke="black" points="163,-478.1 159.5,-468.1 156,-478.1 163,-478.1"/>
</g>
<!-- . 802 -->
<g id="node16" class="node">
<title>. 802</title>
<polygon fill="none" stroke="black" points="231.5,-396 87.5,-396 87.5,-360 231.5,-360 231.5,-396"/>
<text text-anchor="middle" x="159.5" y="-374.3" font-family="Times,serif" font-size="14.00">last_relu (LeakyReLU)</text>
</g>
<!-- . 801&#45;&gt;. 802 -->
<g id="edge18" class="edge">
<title>. 801&#45;&gt;. 802</title>
<path fill="none" stroke="black" d="M159.5,-431.7C159.5,-423.98 159.5,-414.71 159.5,-406.11"/>
<polygon fill="black" stroke="black" points="163,-406.1 159.5,-396.1 156,-406.1 163,-406.1"/>
</g>
<!-- . 803 -->
<g id="node17" class="node">
<title>. 803</title>
<polygon fill="none" stroke="black" points="215,-324 104,-324 104,-288 215,-288 215,-324"/>
<text text-anchor="middle" x="159.5" y="-302.3" font-family="Times,serif" font-size="14.00">linears.3 (Linear)</text>
</g>
<!-- . 802&#45;&gt;. 803 -->
<g id="edge19" class="edge">
<title>. 802&#45;&gt;. 803</title>
<path fill="none" stroke="black" d="M159.5,-359.7C159.5,-351.98 159.5,-342.71 159.5,-334.11"/>
<polygon fill="black" stroke="black" points="163,-334.1 159.5,-324.1 156,-334.1 163,-334.1"/>
</g>
<!-- . 804 -->
<g id="node18" class="node">
<title>. 804</title>
<polygon fill="none" stroke="black" points="231.5,-252 87.5,-252 87.5,-216 231.5,-216 231.5,-252"/>
<text text-anchor="middle" x="159.5" y="-230.3" font-family="Times,serif" font-size="14.00">last_relu (LeakyReLU)</text>
</g>
<!-- . 803&#45;&gt;. 804 -->
<g id="edge20" class="edge">
<title>. 803&#45;&gt;. 804</title>
<path fill="none" stroke="black" d="M159.5,-287.7C159.5,-279.98 159.5,-270.71 159.5,-262.11"/>
<polygon fill="black" stroke="black" points="163,-262.1 159.5,-252.1 156,-262.1 163,-262.1"/>
</g>
<!-- . 805 -->
<g id="node19" class="node">
<title>. 805</title>
<polygon fill="none" stroke="black" points="215,-180 104,-180 104,-144 215,-144 215,-180"/>
<text text-anchor="middle" x="159.5" y="-158.3" font-family="Times,serif" font-size="14.00">linears.4 (Linear)</text>
</g>
<!-- . 804&#45;&gt;. 805 -->
<g id="edge21" class="edge">
<title>. 804&#45;&gt;. 805</title>
<path fill="none" stroke="black" d="M159.5,-215.7C159.5,-207.98 159.5,-198.71 159.5,-190.11"/>
<polygon fill="black" stroke="black" points="163,-190.1 159.5,-180.1 156,-190.1 163,-190.1"/>
</g>
<!-- . 806 -->
<g id="node20" class="node">
<title>. 806</title>
<polygon fill="none" stroke="black" points="231.5,-108 87.5,-108 87.5,-72 231.5,-72 231.5,-108"/>
<text text-anchor="middle" x="159.5" y="-86.3" font-family="Times,serif" font-size="14.00">last_relu (LeakyReLU)</text>
</g>
<!-- . 805&#45;&gt;. 806 -->
<g id="edge22" class="edge">
<title>. 805&#45;&gt;. 806</title>
<path fill="none" stroke="black" d="M159.5,-143.7C159.5,-135.98 159.5,-126.71 159.5,-118.11"/>
<polygon fill="black" stroke="black" points="163,-118.1 159.5,-108.1 156,-118.1 163,-118.1"/>
</g>
<!-- out_0 -->
<g id="node21" class="node">
<title>out_0</title>
<ellipse fill="none" stroke="black" cx="159.5" cy="-18" rx="30.59" ry="18"/>
<text text-anchor="middle" x="159.5" y="-14.3" font-family="Times,serif" font-size="14.00">out_0</text>
</g>
<!-- . 806&#45;&gt;out_0 -->
<g id="edge23" class="edge">
<title>. 806&#45;&gt;out_0</title>
<path fill="none" stroke="black" d="M159.5,-71.7C159.5,-63.98 159.5,-54.71 159.5,-46.11"/>
<polygon fill="black" stroke="black" points="163,-46.1 159.5,-36.1 156,-46.1 163,-46.1"/>
</g>
</g>
</svg>
