<?xml version="1.0" encoding="UTF-8" standalone="no"?>
<!DOCTYPE svg PUBLIC "-//W3C//DTD SVG 1.1//EN"
 "http://www.w3.org/Graphics/SVG/1.1/DTD/svg11.dtd">
<!-- Generated by graphviz version 2.43.0 (0)
 -->
<!-- Title: %3 Pages: 1 -->
<svg width="273pt" height="1075pt"
 viewBox="0.00 0.00 272.54 1075.00" xmlns="http://www.w3.org/2000/svg" xmlns:xlink="http://www.w3.org/1999/xlink">
<g id="graph0" class="graph" transform="scale(1 1) rotate(0) translate(4 1071)">
<title>%3</title>
<polygon fill="white" stroke="transparent" points="-4,4 -4,-1071 268.54,-1071 268.54,4 -4,4"/>
<text text-anchor="middle" x="132.27" y="-1051.8" font-family="Times,serif" font-size="14.00">GCN</text>
<!-- inp_ x.1 -->
<g id="node1" class="node">
<title>inp_ x.1</title>
<ellipse fill="none" stroke="black" cx="54.5" cy="-1026" rx="40.09" ry="18"/>
<text text-anchor="middle" x="54.5" y="-1022.3" font-family="Times,serif" font-size="14.00">inp_ x.1</text>
</g>
<!-- . 756 -->
<g id="node3" class="node">
<title>. 756</title>
<polygon fill="none" stroke="black" points="136,-972 7,-972 7,-936 136,-936 136,-972"/>
<text text-anchor="middle" x="71.5" y="-950.3" font-family="Times,serif" font-size="14.00">convs.0 (GCNConv)</text>
</g>
<!-- inp_ x.1&#45;&gt;. 756 -->
<g id="edge1" class="edge">
<title>inp_ x.1&#45;&gt;. 756</title>
<path fill="none" stroke="black" d="M58.62,-1008.05C60.51,-1000.26 62.8,-990.82 64.92,-982.08"/>
<polygon fill="black" stroke="black" points="68.35,-982.82 67.3,-972.28 61.54,-981.17 68.35,-982.82"/>
</g>
<!-- inp_ edge_index.1 -->
<g id="node2" class="node">
<title>inp_ edge_index.1</title>
<ellipse fill="none" stroke="black" cx="188.5" cy="-1026" rx="76.09" ry="18"/>
<text text-anchor="middle" x="188.5" y="-1022.3" font-family="Times,serif" font-size="14.00">inp_ edge_index.1</text>
</g>
<!-- inp_ edge_index.1&#45;&gt;. 756 -->
<g id="edge2" class="edge">
<title>inp_ edge_index.1&#45;&gt;. 756</title>
<path fill="none" stroke="black" d="M161.95,-1009.12C146.22,-999.7 126.04,-987.63 108.74,-977.28"/>
<polygon fill="black" stroke="black" points="110.37,-974.17 99.99,-972.04 106.77,-980.18 110.37,-974.17"/>
</g>
<!-- . 758 -->
<g id="node5" class="node">
<title>. 758</title>
<polygon fill="none" stroke="black" points="174,-828 45,-828 45,-792 174,-792 174,-828"/>
<text text-anchor="middle" x="109.5" y="-806.3" font-family="Times,serif" font-size="14.00">convs.1 (GCNConv)</text>
</g>
<!-- inp_ edge_index.1&#45;&gt;. 758 -->
<g id="edge5" class="edge">
<title>inp_ edge_index.1&#45;&gt;. 758</title>
<path fill="none" stroke="black" d="M187.05,-1007.73C183.96,-977.33 174.98,-912.86 151.5,-864 146.77,-854.16 139.93,-844.47 133.15,-836.13"/>
<polygon fill="black" stroke="black" points="135.6,-833.62 126.45,-828.28 130.28,-838.16 135.6,-833.62"/>
</g>
<!-- . 760 -->
<g id="node7" class="node">
<title>. 760</title>
<polygon fill="none" stroke="black" points="224,-684 95,-684 95,-648 224,-648 224,-684"/>
<text text-anchor="middle" x="159.5" y="-662.3" font-family="Times,serif" font-size="14.00">convs.2 (GCNConv)</text>
</g>
<!-- inp_ edge_index.1&#45;&gt;. 760 -->
<g id="edge8" class="edge">
<title>inp_ edge_index.1&#45;&gt;. 760</title>
<path fill="none" stroke="black" d="M192.75,-1007.63C198.89,-980.99 209.5,-928.36 209.5,-883 209.5,-883 209.5,-883 209.5,-809 209.5,-768.46 204.09,-757.83 189.5,-720 185.92,-710.73 180.93,-701.12 176.04,-692.67"/>
<polygon fill="black" stroke="black" points="179,-690.8 170.85,-684.03 173,-694.4 179,-690.8"/>
</g>
<!-- . 757 -->
<g id="node4" class="node">
<title>. 757</title>
<polygon fill="none" stroke="black" points="143,-900 0,-900 0,-864 143,-864 143,-900"/>
<text text-anchor="middle" x="71.5" y="-878.3" font-family="Times,serif" font-size="14.00">leakys.0 (LeakyReLU)</text>
</g>
<!-- . 756&#45;&gt;. 757 -->
<g id="edge3" class="edge">
<title>. 756&#45;&gt;. 757</title>
<path fill="none" stroke="black" d="M71.5,-935.7C71.5,-927.98 71.5,-918.71 71.5,-910.11"/>
<polygon fill="black" stroke="black" points="75,-910.1 71.5,-900.1 68,-910.1 75,-910.1"/>
</g>
<!-- . 757&#45;&gt;. 758 -->
<g id="edge4" class="edge">
<title>. 757&#45;&gt;. 758</title>
<path fill="none" stroke="black" d="M80.89,-863.7C85.26,-855.64 90.56,-845.89 95.4,-836.98"/>
<polygon fill="black" stroke="black" points="98.52,-838.56 100.21,-828.1 92.37,-835.22 98.52,-838.56"/>
</g>
<!-- . 759 -->
<g id="node6" class="node">
<title>. 759</title>
<polygon fill="none" stroke="black" points="181,-756 38,-756 38,-720 181,-720 181,-756"/>
<text text-anchor="middle" x="109.5" y="-734.3" font-family="Times,serif" font-size="14.00">leakys.1 (LeakyReLU)</text>
</g>
<!-- . 758&#45;&gt;. 759 -->
<g id="edge6" class="edge">
<title>. 758&#45;&gt;. 759</title>
<path fill="none" stroke="black" d="M109.5,-791.7C109.5,-783.98 109.5,-774.71 109.5,-766.11"/>
<polygon fill="black" stroke="black" points="113,-766.1 109.5,-756.1 106,-766.1 113,-766.1"/>
</g>
<!-- . 759&#45;&gt;. 760 -->
<g id="edge7" class="edge">
<title>. 759&#45;&gt;. 760</title>
<path fill="none" stroke="black" d="M121.86,-719.7C127.73,-711.47 134.87,-701.48 141.34,-692.42"/>
<polygon fill="black" stroke="black" points="144.32,-694.28 147.28,-684.1 138.62,-690.21 144.32,-694.28"/>
</g>
<!-- . 761 -->
<g id="node8" class="node">
<title>. 761</title>
<polygon fill="none" stroke="black" points="231,-612 88,-612 88,-576 231,-576 231,-612"/>
<text text-anchor="middle" x="159.5" y="-590.3" font-family="Times,serif" font-size="14.00">leakys.2 (LeakyReLU)</text>
</g>
<!-- . 760&#45;&gt;. 761 -->
<g id="edge9" class="edge">
<title>. 760&#45;&gt;. 761</title>
<path fill="none" stroke="black" d="M159.5,-647.7C159.5,-639.98 159.5,-630.71 159.5,-622.11"/>
<polygon fill="black" stroke="black" points="163,-622.1 159.5,-612.1 156,-622.1 163,-622.1"/>
</g>
<!-- . 762 -->
<g id="node9" class="node">
<title>. 762</title>
<polygon fill="none" stroke="black" points="254.5,-468 64.5,-468 64.5,-432 254.5,-432 254.5,-468"/>
<text text-anchor="middle" x="159.5" y="-446.3" font-family="Times,serif" font-size="14.00">mean_pool (MeanAggregation)</text>
</g>
<!-- . 761&#45;&gt;. 762 -->
<g id="edge12" class="edge">
<title>. 761&#45;&gt;. 762</title>
<path fill="none" stroke="black" d="M154.09,-575.53C151.2,-565.29 147.95,-552.04 146.5,-540 144.58,-524.12 144.58,-519.88 146.5,-504 147.52,-495.53 149.43,-486.47 151.48,-478.28"/>
<polygon fill="black" stroke="black" points="154.9,-479.03 154.09,-468.47 148.14,-477.23 154.9,-479.03"/>
</g>
<!-- index.19 -->
<g id="node10" class="node">
<title>index.19</title>
<path fill="none" stroke="black" d="M217.5,-540C217.5,-540 167.5,-540 167.5,-540 161.5,-540 155.5,-534 155.5,-528 155.5,-528 155.5,-516 155.5,-516 155.5,-510 161.5,-504 167.5,-504 167.5,-504 217.5,-504 217.5,-504 223.5,-504 229.5,-510 229.5,-516 229.5,-516 229.5,-528 229.5,-528 229.5,-534 223.5,-540 217.5,-540"/>
<text text-anchor="middle" x="192.5" y="-518.3" font-family="Times,serif" font-size="14.00">new_zeros</text>
</g>
<!-- . 761&#45;&gt;index.19 -->
<g id="edge10" class="edge">
<title>. 761&#45;&gt;index.19</title>
<path fill="none" stroke="black" d="M167.66,-575.7C171.41,-567.73 175.95,-558.1 180.12,-549.26"/>
<polygon fill="black" stroke="black" points="183.34,-550.64 184.44,-540.1 177.01,-547.66 183.34,-550.64"/>
</g>
<!-- . 763 -->
<g id="node11" class="node">
<title>. 763</title>
<polygon fill="none" stroke="black" points="250.5,-396 68.5,-396 68.5,-360 250.5,-360 250.5,-396"/>
<text text-anchor="middle" x="159.5" y="-374.3" font-family="Times,serif" font-size="14.00">batchnorms.0 (BatchNorm1d)</text>
</g>
<!-- . 762&#45;&gt;. 763 -->
<g id="edge13" class="edge">
<title>. 762&#45;&gt;. 763</title>
<path fill="none" stroke="black" d="M159.5,-431.7C159.5,-423.98 159.5,-414.71 159.5,-406.11"/>
<polygon fill="black" stroke="black" points="163,-406.1 159.5,-396.1 156,-406.1 163,-406.1"/>
</g>
<!-- index.19&#45;&gt;. 762 -->
<g id="edge11" class="edge">
<title>index.19&#45;&gt;. 762</title>
<path fill="none" stroke="black" d="M184.34,-503.7C180.59,-495.73 176.05,-486.1 171.88,-477.26"/>
<polygon fill="black" stroke="black" points="174.99,-475.66 167.56,-468.1 168.66,-478.64 174.99,-475.66"/>
</g>
<!-- . 764 -->
<g id="node12" class="node">
<title>. 764</title>
<polygon fill="none" stroke="black" points="215,-324 104,-324 104,-288 215,-288 215,-324"/>
<text text-anchor="middle" x="159.5" y="-302.3" font-family="Times,serif" font-size="14.00">linears.0 (Linear)</text>
</g>
<!-- . 763&#45;&gt;. 764 -->
<g id="edge14" class="edge">
<title>. 763&#45;&gt;. 764</title>
<path fill="none" stroke="black" d="M159.5,-359.7C159.5,-351.98 159.5,-342.71 159.5,-334.11"/>
<polygon fill="black" stroke="black" points="163,-334.1 159.5,-324.1 156,-334.1 163,-334.1"/>
</g>
<!-- . 765 -->
<g id="node13" class="node">
<title>. 765</title>
<polygon fill="none" stroke="black" points="231.5,-252 87.5,-252 87.5,-216 231.5,-216 231.5,-252"/>
<text text-anchor="middle" x="159.5" y="-230.3" font-family="Times,serif" font-size="14.00">last_relu (LeakyReLU)</text>
</g>
<!-- . 764&#45;&gt;. 765 -->
<g id="edge15" class="edge">
<title>. 764&#45;&gt;. 765</title>
<path fill="none" stroke="black" d="M159.5,-287.7C159.5,-279.98 159.5,-270.71 159.5,-262.11"/>
<polygon fill="black" stroke="black" points="163,-262.1 159.5,-252.1 156,-262.1 163,-262.1"/>
</g>
<!-- . 766 -->
<g id="node14" class="node">
<title>. 766</title>
<polygon fill="none" stroke="black" points="215,-180 104,-180 104,-144 215,-144 215,-180"/>
<text text-anchor="middle" x="159.5" y="-158.3" font-family="Times,serif" font-size="14.00">linears.1 (Linear)</text>
</g>
<!-- . 765&#45;&gt;. 766 -->
<g id="edge16" class="edge">
<title>. 765&#45;&gt;. 766</title>
<path fill="none" stroke="black" d="M159.5,-215.7C159.5,-207.98 159.5,-198.71 159.5,-190.11"/>
<polygon fill="black" stroke="black" points="163,-190.1 159.5,-180.1 156,-190.1 163,-190.1"/>
</g>
<!-- . 767 -->
<g id="node15" class="node">
<title>. 767</title>
<polygon fill="none" stroke="black" points="231.5,-108 87.5,-108 87.5,-72 231.5,-72 231.5,-108"/>
<text text-anchor="middle" x="159.5" y="-86.3" font-family="Times,serif" font-size="14.00">last_relu (LeakyReLU)</text>
</g>
<!-- . 766&#45;&gt;. 767 -->
<g id="edge17" class="edge">
<title>. 766&#45;&gt;. 767</title>
<path fill="none" stroke="black" d="M159.5,-143.7C159.5,-135.98 159.5,-126.71 159.5,-118.11"/>
<polygon fill="black" stroke="black" points="163,-118.1 159.5,-108.1 156,-118.1 163,-118.1"/>
</g>
<!-- out_0 -->
<g id="node16" class="node">
<title>out_0</title>
<ellipse fill="none" stroke="black" cx="159.5" cy="-18" rx="30.59" ry="18"/>
<text text-anchor="middle" x="159.5" y="-14.3" font-family="Times,serif" font-size="14.00">out_0</text>
</g>
<!-- . 767&#45;&gt;out_0 -->
<g id="edge18" class="edge">
<title>. 767&#45;&gt;out_0</title>
<path fill="none" stroke="black" d="M159.5,-71.7C159.5,-63.98 159.5,-54.71 159.5,-46.11"/>
<polygon fill="black" stroke="black" points="163,-46.1 159.5,-36.1 156,-46.1 163,-46.1"/>
</g>
</g>
</svg>
